#Comment line ignore any data following # character 
#Hierarchical Translation and Rotation (.htr) file 
[Header]	
#Header keywords are followed by a single value 
FileType HTR		#Single word string
DataType HTRS		#Translation followed by rotation and scale data
FileVersion 1		#integer
NumSegments 84		#integer
NumFrames 2		#integer
DataFrameRate 30		#integer, data frame rate in this file
EulerRotationOrder ZYX
CalibrationUnits mm
RotationUnits Degrees
GlobalAxisofGravity Y
BoneLengthAxis Y
ScaleFactor 1.00
[SegmentNames&Hierarchy]
#CHILD	PARENT
MASTER GLOBAL
root MASTER
chest root
L_mid_tent01 root
R_mid_tent01 root
spine01 root
Bip01_Neck chest
L_humerus chest
R_humerus chest
weapon_bone chest
Bip01_Head Bip01_Neck
eye_left_bone Bip01_Head
eye_right_bone Bip01_Head
L_forearm L_humerus
L_front_hand L_forearm
L_weapon_bone L_forearm
L_front_hand01_01 L_front_hand
L_front_hand02_01 L_front_hand
L_front_hand03_01 L_front_hand
L_front_hand01_02 L_front_hand01_01
L_front_hand02_02 L_front_hand02_01
L_front_hand03_02 L_front_hand03_01
R_forearm R_humerus
R_front_hand R_forearm
R_weapon_bone R_forearm
R_front_hand01_01 R_front_hand
R_front_hand02_01 R_front_hand
R_front_hand03_01 R_front_hand
R_front_hand01_02 R_front_hand01_01
R_front_hand02_02 R_front_hand02_01
R_front_hand03_02 R_front_hand03_01
null_rope01_connect L_mid_tent01
Rope1_Seg01 null_rope01_connect
Rope1_Seg02 Rope1_Seg01
Rope1_Seg03 Rope1_Seg02
Rope1_Seg04 Rope1_Seg03
Rope1_Seg05 Rope1_Seg04
Rope1_Seg06 Rope1_Seg05
Rope1_Seg07 Rope1_Seg06
Rope1_Seg09 Rope1_Seg07
L_mid_hand01 Rope1_Seg09
L_mid_hand02 Rope1_Seg09
L_mid_hand03 Rope1_Seg09
null_rope02_connect R_mid_tent01
Rope2_Seg01 null_rope02_connect
Rope2_Seg02 Rope2_Seg01
Rope2_Seg03 Rope2_Seg02
Rope2_Seg04 Rope2_Seg03
Rope2_Seg05 Rope2_Seg04
Rope2_Seg06 Rope2_Seg05
Rope2_Seg07 Rope2_Seg06
Rope2_Seg09 Rope2_Seg07
R_mid_hand01 Rope2_Seg09
R_mid_hand02 Rope2_Seg09
R_mid_hand03 Rope2_Seg09
spine02 spine01
spine03 spine02
pelvis spine03
null_rope03_connect pelvis
null_rope04_connect pelvis
Rope3_Seg01 null_rope03_connect
Rope3_Seg02 Rope3_Seg01
Rope3_Seg03 Rope3_Seg02
Rope3_Seg04 Rope3_Seg03
Rope3_Seg05 Rope3_Seg04
Rope3_Seg06 Rope3_Seg05
Rope3_Seg07 Rope3_Seg06
Rope3_Seg08 Rope3_Seg07
Rope3_Seg09 Rope3_Seg08
R_rear_hand01 Rope3_Seg09
R_rear_hand02 Rope3_Seg09
R_rear_hand03 Rope3_Seg09
Rope4_Seg01 null_rope04_connect
Rope4_Seg02 Rope4_Seg01
Rope4_Seg03 Rope4_Seg02
Rope4_Seg04 Rope4_Seg03
Rope4_Seg05 Rope4_Seg04
Rope4_Seg06 Rope4_Seg05
Rope4_Seg07 Rope4_Seg06
Rope4_Seg08 Rope4_Seg07
Rope4_Seg09 Rope4_Seg08
L_rear_hand01 Rope4_Seg09
L_rear_hand02 Rope4_Seg09
L_rear_hand03 Rope4_Seg09
[BasePosition]
#SegmentName Tx, Ty, Tz, Rx, Ry, Rz, BoneLength
MASTER 0.000000 0.000000 0.000000 -90.000000 0.000000 0.000000 10.000000 
root 0.000000 0.000000 0.000000 0.000000 0.000000 0.000000 10.000000 
chest 0.000000 0.000000 0.000000 0.000000 0.000000 0.000000 10.000000 
L_mid_tent01 0.000000 0.000000 0.000000 0.000000 0.000000 0.000000 10.000000 
R_mid_tent01 0.000000 0.000000 0.000000 0.000000 0.000000 0.000000 10.000000 
spine01 0.000000 0.000000 0.000000 0.000000 0.000000 0.000000 10.000000 
Bip01_Neck 0.000000 0.000000 0.000000 0.000000 0.000000 0.000000 10.000000 
L_humerus 0.000000 0.000000 0.000000 0.000000 0.000000 0.000000 10.000000 
R_humerus 0.000000 0.000000 0.000000 0.000000 0.000000 0.000000 10.000000 
weapon_bone 0.000000 0.000000 0.000000 0.000000 0.000000 0.000000 10.000000 
Bip01_Head 0.000000 0.000000 0.000000 0.000000 0.000000 0.000000 10.000000 
eye_left_bone 0.000000 0.000000 0.000000 0.000000 0.000000 0.000000 10.000000 
eye_right_bone 0.000000 0.000000 0.000000 0.000000 0.000000 0.000000 10.000000 
L_forearm 0.000000 0.000000 0.000000 0.000000 0.000000 0.000000 10.000000 
L_front_hand 0.000000 0.000000 0.000000 0.000000 0.000000 0.000000 10.000000 
L_weapon_bone 0.000000 0.000000 0.000000 0.000000 0.000000 0.000000 10.000000 
L_front_hand01_01 0.000000 0.000000 0.000000 0.000000 0.000000 0.000000 10.000000 
L_front_hand02_01 0.000000 0.000000 0.000000 0.000000 0.000000 0.000000 10.000000 
L_front_hand03_01 0.000000 0.000000 0.000000 0.000000 0.000000 0.000000 10.000000 
L_front_hand01_02 0.000000 0.000000 0.000000 0.000000 0.000000 0.000000 10.000000 
L_front_hand02_02 0.000000 0.000000 0.000000 0.000000 0.000000 0.000000 10.000000 
L_front_hand03_02 0.000000 0.000000 0.000000 0.000000 0.000000 0.000000 10.000000 
R_forearm 0.000000 0.000000 0.000000 0.000000 0.000000 0.000000 10.000000 
R_front_hand 0.000000 0.000000 0.000000 0.000000 0.000000 0.000000 10.000000 
R_weapon_bone 0.000000 0.000000 0.000000 0.000000 0.000000 0.000000 10.000000 
R_front_hand01_01 0.000000 0.000000 0.000000 0.000000 0.000000 0.000000 10.000000 
R_front_hand02_01 0.000000 0.000000 0.000000 0.000000 0.000000 0.000000 10.000000 
R_front_hand03_01 0.000000 0.000000 0.000000 0.000000 0.000000 0.000000 10.000000 
R_front_hand01_02 0.000000 0.000000 0.000000 0.000000 0.000000 0.000000 10.000000 
R_front_hand02_02 0.000000 0.000000 0.000000 0.000000 0.000000 0.000000 10.000000 
R_front_hand03_02 0.000000 0.000000 0.000000 0.000000 0.000000 0.000000 10.000000 
null_rope01_connect 0.000000 0.000000 0.000000 0.000000 0.000000 0.000000 10.000000 
Rope1_Seg01 0.000000 0.000000 0.000000 0.000000 0.000000 0.000000 10.000000 
Rope1_Seg02 0.000000 0.000000 0.000000 0.000000 0.000000 0.000000 10.000000 
Rope1_Seg03 0.000000 0.000000 0.000000 0.000000 0.000000 0.000000 10.000000 
Rope1_Seg04 0.000000 0.000000 0.000000 0.000000 0.000000 0.000000 10.000000 
Rope1_Seg05 0.000000 0.000000 0.000000 0.000000 0.000000 0.000000 10.000000 
Rope1_Seg06 0.000000 0.000000 0.000000 0.000000 0.000000 0.000000 10.000000 
Rope1_Seg07 0.000000 0.000000 0.000000 0.000000 0.000000 0.000000 10.000000 
Rope1_Seg09 0.000000 0.000000 0.000000 0.000000 0.000000 0.000000 10.000000 
L_mid_hand01 0.000000 0.000000 0.000000 0.000000 0.000000 0.000000 10.000000 
L_mid_hand02 0.000000 0.000000 0.000000 0.000000 0.000000 0.000000 10.000000 
L_mid_hand03 0.000000 0.000000 0.000000 0.000000 0.000000 0.000000 10.000000 
null_rope02_connect 0.000000 0.000000 0.000000 0.000000 0.000000 0.000000 10.000000 
Rope2_Seg01 0.000000 0.000000 0.000000 0.000000 0.000000 0.000000 10.000000 
Rope2_Seg02 0.000000 0.000000 0.000000 0.000000 0.000000 0.000000 10.000000 
Rope2_Seg03 0.000000 0.000000 0.000000 0.000000 0.000000 0.000000 10.000000 
Rope2_Seg04 0.000000 0.000000 0.000000 0.000000 0.000000 0.000000 10.000000 
Rope2_Seg05 0.000000 0.000000 0.000000 0.000000 0.000000 0.000000 10.000000 
Rope2_Seg06 0.000000 0.000000 0.000000 0.000000 0.000000 0.000000 10.000000 
Rope2_Seg07 0.000000 0.000000 0.000000 0.000000 0.000000 0.000000 10.000000 
Rope2_Seg09 0.000000 0.000000 0.000000 0.000000 0.000000 0.000000 10.000000 
R_mid_hand01 0.000000 0.000000 0.000000 0.000000 0.000000 0.000000 10.000000 
R_mid_hand02 0.000000 0.000000 0.000000 0.000000 0.000000 0.000000 10.000000 
R_mid_hand03 0.000000 0.000000 0.000000 0.000000 0.000000 0.000000 10.000000 
spine02 0.000000 0.000000 0.000000 0.000000 0.000000 0.000000 10.000000 
spine03 0.000000 0.000000 0.000000 0.000000 0.000000 0.000000 10.000000 
pelvis 0.000000 0.000000 0.000000 0.000000 0.000000 0.000000 10.000000 
null_rope03_connect 0.000000 0.000000 0.000000 0.000000 0.000000 0.000000 10.000000 
null_rope04_connect 0.000000 0.000000 0.000000 0.000000 0.000000 0.000000 10.000000 
Rope3_Seg01 0.000000 0.000000 0.000000 0.000000 0.000000 0.000000 10.000000 
Rope3_Seg02 0.000000 0.000000 0.000000 0.000000 0.000000 0.000000 10.000000 
Rope3_Seg03 0.000000 0.000000 0.000000 0.000000 0.000000 0.000000 10.000000 
Rope3_Seg04 0.000000 0.000000 0.000000 0.000000 0.000000 0.000000 10.000000 
Rope3_Seg05 0.000000 0.000000 0.000000 0.000000 0.000000 0.000000 10.000000 
Rope3_Seg06 0.000000 0.000000 0.000000 0.000000 0.000000 0.000000 10.000000 
Rope3_Seg07 0.000000 0.000000 0.000000 0.000000 0.000000 0.000000 10.000000 
Rope3_Seg08 0.000000 0.000000 0.000000 0.000000 0.000000 0.000000 10.000000 
Rope3_Seg09 0.000000 0.000000 0.000000 0.000000 0.000000 0.000000 10.000000 
R_rear_hand01 0.000000 0.000000 0.000000 0.000000 0.000000 0.000000 10.000000 
R_rear_hand02 0.000000 0.000000 0.000000 0.000000 0.000000 0.000000 10.000000 
R_rear_hand03 0.000000 0.000000 0.000000 0.000000 0.000000 0.000000 10.000000 
Rope4_Seg01 0.000000 0.000000 0.000000 0.000000 0.000000 0.000000 10.000000 
Rope4_Seg02 0.000000 0.000000 0.000000 0.000000 0.000000 0.000000 10.000000 
Rope4_Seg03 0.000000 0.000000 0.000000 0.000000 0.000000 0.000000 10.000000 
Rope4_Seg04 0.000000 0.000000 0.000000 0.000000 0.000000 0.000000 10.000000 
Rope4_Seg05 0.000000 0.000000 0.000000 0.000000 0.000000 0.000000 10.000000 
Rope4_Seg06 0.000000 0.000000 0.000000 0.000000 0.000000 0.000000 10.000000 
Rope4_Seg07 0.000000 0.000000 0.000000 0.000000 0.000000 0.000000 10.000000 
Rope4_Seg08 0.000000 0.000000 0.000000 0.000000 0.000000 0.000000 10.000000 
Rope4_Seg09 0.000000 0.000000 0.000000 0.000000 0.000000 0.000000 10.000000 
L_rear_hand01 0.000000 0.000000 0.000000 0.000000 0.000000 0.000000 10.000000 
L_rear_hand02 0.000000 0.000000 0.000000 0.000000 0.000000 0.000000 10.000000 
L_rear_hand03 0.000000 0.000000 0.000000 0.000000 0.000000 0.000000 10.000000 
#Beginning of Data. Separated by tabs
#Fr	Tx	Ty	Tz	Rx	Ry	Rz	SF
[MASTER]
85 -0.000583 3888.735596 0.000000 0.001660 0.001660 0.001660 3888.735596
86 -0.000584 3893.185059 0.000000 0.001660 0.001660 0.001660 3893.185303
[root]
85 212.500336 181.245728 1052.397827 -115.477959 -25.248535 -65.793289 1088.828613
86 226.289093 181.245728 1073.929443 -115.079277 -24.730947 -66.120880 1112.376343
[chest]
85 -84.512650 -34.090519 0.000000 -4.391355 -3.222534 -178.140106 91.129311
86 -84.512650 -34.090519 0.000000 -4.313687 -3.059792 -178.524841 91.129311
[L_mid_tent01]
85 27.558765 22.028795 -251.584885 -0.466048 58.193485 67.358795 254.046661
86 27.550615 22.033472 -251.532471 0.246702 58.306286 68.282280 253.994263
[R_mid_tent01]
85 23.228794 24.509907 226.238495 151.530029 -48.556416 133.547241 228.744751
86 23.228794 24.509907 226.238495 152.468430 -47.337322 131.616699 228.744751
[spine01]
85 -0.361383 -0.195265 0.000000 0.001869 0.001420 15.534141 0.410763
86 -0.361383 -0.195265 0.000000 0.001869 0.001420 15.534141 0.410763
[Bip01_Neck]
85 165.484543 71.581718 0.000119 175.896118 1.177290 24.871183 180.302734
86 165.484543 71.581718 0.000119 175.896118 1.177290 24.871183 180.302734
[L_humerus]
85 -13.983130 -135.272980 -120.471481 175.500610 55.921967 -64.828323 181.680161
86 -13.983130 -135.272980 -120.471481 175.500610 55.921959 -64.828316 181.680161
[R_humerus]
85 -13.983309 -135.273102 125.287651 -178.898193 -46.892147 -62.295101 184.909012
86 -13.983309 -135.273102 125.287651 -178.898193 -46.892124 -62.295071 184.909012
[weapon_bone]
85 235.964890 -300.705902 0.000000 0.000000 -89.951546 -128.212341 382.234833
86 235.964890 -300.705902 0.000000 0.000000 -89.951546 -128.212341 382.234833
[Bip01_Head]
85 175.978668 152.649780 20.288095 -3.408581 16.328985 -76.797058 233.841949
86 176.489166 154.302017 20.033016 -3.120496 16.396730 -76.574669 235.284622
[eye_left_bone]
85 -24.626970 125.451866 -64.772606 0.000000 -90.000000 -99.840431 143.318359
86 -24.626970 125.451866 -64.772606 0.000000 -90.000000 -99.840431 143.318359
[eye_right_bone]
85 -24.626970 125.451866 64.327362 0.000000 -89.960434 80.159386 143.117676
86 -24.626970 125.451866 64.327362 0.000000 -89.960434 80.159386 143.117676
[L_forearm]
85 322.776093 0.000000 -0.000119 0.000640 0.002258 -58.348755 322.776093
86 322.776093 0.000000 -0.000119 0.000640 0.002258 -58.348751 322.776093
[L_front_hand]
85 241.149185 -0.042021 -3.300071 -178.667953 -1.835447 -27.422350 241.171753
86 241.149185 -0.042021 -3.300071 -178.667953 -1.835447 -27.422350 241.171753
[L_weapon_bone]
85 156.183838 0.000000 0.000000 0.000014 0.000007 0.000001 156.183838
86 156.183838 0.000000 0.000000 0.000014 0.000007 0.000001 156.183838
[L_front_hand01_01]
85 86.095154 20.947098 -0.655860 -0.366594 -0.477154 75.385574 88.609184
86 86.095154 20.947098 -0.655860 -0.366594 -0.477154 75.385574 88.609184
[L_front_hand02_01]
85 86.935165 -11.437475 24.513514 154.403519 -59.888931 -61.371990 91.046425
86 86.935165 -11.437475 24.513514 154.403519 -59.888931 -61.371990 91.046425
[L_front_hand03_01]
85 86.637497 -14.123976 -20.424902 -153.913849 58.118122 -62.702866 90.126129
86 86.637497 -14.123976 -20.424902 -153.913849 58.118122 -62.702866 90.126129
[L_front_hand01_02]
85 71.020905 -0.000179 0.000030 0.000334 -0.002323 -106.379684 71.020905
86 71.020905 -0.000179 0.000030 0.000334 -0.002323 -106.379684 71.020905
[L_front_hand02_02]
85 71.020927 -0.000119 0.000060 0.000334 -0.002323 -106.379684 71.020927
86 71.020927 -0.000119 0.000060 0.000334 -0.002323 -106.379684 71.020927
[L_front_hand03_02]
85 71.020905 -0.000060 0.000060 0.000334 -0.002323 -106.379684 71.020905
86 71.020905 -0.000060 0.000060 0.000334 -0.002323 -106.379684 71.020905
[R_forearm]
85 322.776428 -0.000060 0.000030 0.178801 -0.113338 -58.530384 322.776428
86 322.776428 -0.000060 0.000030 0.178801 -0.113338 -58.530384 322.776428
[R_front_hand]
85 238.847015 -0.006795 2.210259 -1.531694 0.790216 -51.443054 238.857239
86 238.847015 -0.006795 2.210259 -1.531694 0.790216 -51.443054 238.857239
[R_weapon_bone]
85 155.664093 0.002503 -0.000030 0.003487 0.001180 -90.988930 155.664078
86 155.664093 0.002503 -0.000030 0.003487 0.001180 -90.988930 155.664078
[R_front_hand01_01]
85 87.624611 14.231146 22.918642 -154.633499 -59.950619 61.746044 91.683487
86 87.624611 14.231146 22.918642 -154.633499 -59.950619 61.746044 91.683487
[R_front_hand02_01]
85 89.356956 14.367283 -19.491137 154.602661 58.302849 63.744389 92.579636
86 89.356956 14.367283 -19.491137 154.602661 58.302849 63.744389 92.579636
[R_front_hand03_01]
85 87.286232 -22.307278 -0.143439 0.162155 -0.423168 -75.767921 90.091743
86 87.286232 -22.307278 -0.143439 0.162155 -0.423168 -75.767921 90.091743
[R_front_hand01_02]
85 71.020905 0.000060 0.000119 0.002323 -0.000334 106.381714 71.020905
86 71.020905 0.000060 0.000119 0.002323 -0.000334 106.381714 71.020905
[R_front_hand02_02]
85 71.020844 -0.000030 -0.000119 0.002323 -0.000334 106.381714 71.020836
86 71.020844 -0.000030 -0.000119 0.002323 -0.000334 106.381714 71.020836
[R_front_hand03_02]
85 71.020905 0.000000 0.000030 0.002323 -0.000334 106.381714 71.020905
86 71.020905 0.000000 0.000030 0.002323 -0.000334 106.381714 71.020905
[null_rope01_connect]
85 328.732483 0.000000 -0.000238 -141.199539 -24.049881 -151.493866 328.732483
86 328.732483 0.000000 -0.000238 -141.742737 -23.907297 -152.197632 328.732483
[Rope1_Seg01]
85 4.049332 -5.516236 -4.141126 88.511162 5.904454 -137.535522 7.998430
86 4.030770 -5.479249 -4.207715 91.317421 7.306463 -138.053940 7.998384
[Rope1_Seg02]
85 139.999863 -0.000179 0.000000 10.827459 -9.877611 0.953100 139.999863
86 139.999863 -0.000179 0.000000 10.293285 -9.723476 1.436284 139.999863
[Rope1_Seg03]
85 139.999924 0.000060 -0.000060 8.075282 -14.871825 4.477954 139.999924
86 139.999924 0.000060 -0.000060 7.417096 -14.376040 4.986845 139.999924
[Rope1_Seg04]
85 139.999924 -0.000060 -0.000119 2.034950 -22.081242 12.944592 139.999924
86 139.999924 -0.000060 -0.000119 1.741100 -21.185051 13.203241 139.999924
[Rope1_Seg05]
85 139.999832 0.000119 -0.000060 -1.443624 -19.439516 13.157726 139.999832
86 139.999832 0.000119 -0.000060 -1.452750 -19.037334 13.580480 139.999832
[Rope1_Seg06]
85 139.999954 0.000119 -0.000060 -0.351402 -5.518306 -2.333510 139.999954
86 139.999954 0.000119 -0.000060 -0.250887 -5.322466 -2.130611 139.999954
[Rope1_Seg07]
85 139.999985 0.000060 0.000000 -0.240571 0.341668 -8.062282 139.999985
86 139.999985 0.000060 0.000000 -0.163548 0.585079 -8.067416 139.999985
[Rope1_Seg09]
85 121.602913 0.000119 -0.000089 -89.793175 -1.359789 0.847147 121.602913
86 121.602913 0.000119 -0.000089 -89.793175 -1.359789 0.847147 121.602913
[L_mid_hand01]
85 103.859421 1.038730 8.195221 116.294914 -23.111713 -31.758034 104.187431
86 103.859421 1.038730 8.195221 116.294914 -23.111713 -31.758034 104.187431
[L_mid_hand02]
85 105.572853 -4.139662 -10.864139 -144.219833 17.447468 -35.360519 106.211075
86 105.572853 -4.139662 -10.864139 -144.219833 17.447468 -35.360519 106.211075
[L_mid_hand03]
85 104.641464 17.579376 -3.913581 -17.830778 17.153101 31.982922 106.179977
86 104.641464 17.579376 -3.913581 -17.830778 17.153103 31.982925 106.179977
[null_rope02_connect]
85 328.732849 0.000179 -0.000119 -136.489532 48.769859 53.509235 328.732849
86 328.732849 0.000179 -0.000119 -134.811111 49.382351 54.542797 328.732849
[Rope2_Seg01]
85 0.000034 0.000409 0.000085 -45.493027 52.208351 58.618202 0.000419
86 0.000033 0.000412 0.000086 -59.341969 57.749798 42.697712 0.000422
[Rope2_Seg02]
85 139.999741 -0.000060 -0.000119 -0.555274 2.050209 33.082085 139.999756
86 139.999741 -0.000060 -0.000119 -5.386992 -2.085777 29.146395 139.999756
[Rope2_Seg03]
85 140.000107 0.000030 0.000000 2.004758 -0.946199 17.174576 140.000107
86 140.000107 0.000030 0.000000 -0.083706 -7.048367 19.972408 140.000107
[Rope2_Seg04]
85 139.999802 0.000000 -0.000060 5.098319 13.240356 16.779943 139.999802
86 139.999802 0.000000 -0.000060 4.837802 8.555697 16.745770 139.999802
[Rope2_Seg05]
85 139.999985 -0.000060 0.000119 2.515013 15.139797 15.078126 139.999985
86 139.999985 -0.000060 0.000119 4.406411 15.133308 16.611242 139.999985
[Rope2_Seg06]
85 139.999893 -0.000030 -0.000119 -0.301184 7.780628 8.396007 139.999893
86 139.999893 -0.000030 -0.000119 0.672710 7.639006 9.360669 139.999893
[Rope2_Seg07]
85 139.999893 0.000060 -0.000060 -0.640011 4.326030 4.779682 139.999893
86 139.999893 0.000060 -0.000060 -0.079143 4.616740 5.613650 139.999893
[Rope2_Seg09]
85 121.338966 0.000089 -0.000060 33.793236 -1.359788 -0.847141 121.338966
86 121.338966 0.000089 -0.000060 33.793236 -1.359788 -0.847141 121.338966
[R_mid_hand01]
85 104.680779 11.144459 -10.335981 -41.523792 25.424656 28.595957 105.778534
86 104.680779 11.144459 -10.335981 -41.523792 25.424656 28.595957 105.778534
[R_mid_hand02]
85 104.070427 2.443552 8.231699 72.847389 -32.746803 10.013901 104.424065
86 104.070427 2.443552 8.231699 72.847389 -32.746803 10.013901 104.424065
[R_mid_hand03]
85 106.028137 -11.221827 -5.996406 -167.901306 10.259192 -37.009720 106.788818
86 106.028137 -11.221827 -5.996406 -167.901306 10.259192 -37.009720 106.788818
[spine02]
85 129.756927 0.001550 0.000119 -0.245322 -4.052060 -4.355547 129.756927
86 129.756927 0.001550 0.000119 -0.245322 -4.052060 -4.355547 129.756927
[spine03]
85 78.614182 0.087280 -4.898821 0.369659 4.260734 -4.885720 78.766716
86 78.614189 0.087280 -4.898822 0.369659 4.260734 -4.885720 78.766724
[pelvis]
85 169.435242 0.051022 0.000000 -0.010007 -0.191417 -1.897554 169.435257
86 169.435242 0.051022 0.000000 -0.010007 -0.191417 -1.897554 169.435257
[null_rope03_connect]
85 -1.257226 -2.466202 137.391083 151.667419 -64.267670 -35.976112 137.418976
86 -1.257226 -2.466202 137.391083 151.217484 -64.448174 -36.162216 137.418976
[null_rope04_connect]
85 -1.259640 -2.480268 -137.844437 151.667419 -64.267670 -35.976112 137.872513
86 -1.259640 -2.480268 -137.844437 151.217484 -64.448174 -36.162216 137.872513
[Rope3_Seg01]
85 -0.000004 0.000342 -0.000171 -144.161133 36.140583 -96.570587 0.000382
86 -0.000004 0.000346 -0.000173 -150.491089 38.496410 -104.894218 0.000387
[Rope3_Seg02]
85 139.999924 -0.000119 0.000060 -1.888781 -4.492249 1.125210 139.999924
86 139.999924 -0.000119 0.000060 -2.415506 -4.578764 0.781468 139.999924
[Rope3_Seg03]
85 139.999924 -0.000119 0.000119 -2.809444 -7.425160 1.611834 139.999924
86 139.999924 -0.000119 0.000119 -3.482148 -7.515441 0.964353 139.999924
[Rope3_Seg04]
85 139.999924 0.000119 0.000000 -4.306631 -14.364762 2.450277 139.999924
86 139.999924 0.000119 0.000000 -5.037858 -14.325002 0.979489 139.999924
[Rope3_Seg05]
85 139.999924 -0.000238 0.000060 -3.533941 -36.403397 3.575895 139.999924
86 139.999924 -0.000238 0.000060 -3.124816 -35.668716 -1.232568 139.999924
[Rope3_Seg06]
85 139.999893 -0.000119 -0.000060 4.962956 -27.329737 1.795353 139.999893
86 139.999893 -0.000119 -0.000060 5.655703 -27.041594 -2.179045 139.999893
[Rope3_Seg07]
85 139.999771 0.000060 -0.000119 2.996529 -7.646151 2.523833 139.999771
86 139.999771 0.000060 -0.000119 3.190715 -7.578587 1.401877 139.999771
[Rope3_Seg08]
85 139.999985 -0.000060 0.000000 3.574008 -8.276737 2.873811 139.999985
86 139.999985 -0.000060 0.000000 3.944766 -8.253039 1.652072 139.999985
[Rope3_Seg09]
85 90.185997 -0.000179 -0.000060 89.793228 -1.359877 -0.847183 90.185997
86 90.185997 -0.000179 -0.000060 89.793228 -1.359877 -0.847183 90.185997
[R_rear_hand01]
85 103.366196 -6.073594 -10.757982 -158.627975 33.644127 -23.327253 104.101845
86 103.366196 -6.073594 -10.757982 -158.627975 33.644127 -23.327253 104.101845
[R_rear_hand02]
85 100.509819 12.039542 -7.992327 -36.327797 26.496241 23.332451 101.543350
86 100.509819 12.039542 -7.992327 -36.327797 26.496241 23.332451 101.543350
[R_rear_hand03]
85 101.539970 5.215704 5.435467 73.054977 -27.152536 27.950705 101.819031
86 101.539970 5.215704 5.435467 73.054977 -27.152536 27.950705 101.819031
[Rope4_Seg01]
85 -0.000027 0.000017 0.000067 81.656898 -53.020130 -137.004013 0.000074
86 -0.000027 0.000017 0.000066 71.006050 -43.961945 -131.131271 0.000073
[Rope4_Seg02]
85 139.999985 0.000060 0.000119 5.920888 -10.164778 3.577175 139.999985
86 139.999985 0.000060 0.000119 7.188435 -10.418652 6.904188 139.999985
[Rope4_Seg03]
85 139.999924 0.000000 -0.000238 9.758340 -11.169656 5.576861 139.999924
86 139.999924 0.000000 -0.000238 11.743764 -11.937833 10.782888 139.999924
[Rope4_Seg04]
85 139.999985 0.000000 0.000119 12.610070 -7.679336 9.198235 139.999985
86 139.999985 0.000000 0.000119 12.521738 -6.817968 14.096778 139.999985
[Rope4_Seg05]
85 139.999802 -0.000060 -0.000119 13.278783 -9.286475 7.573293 139.999802
86 139.999802 -0.000060 -0.000119 10.811174 -6.895008 12.350399 139.999802
[Rope4_Seg06]
85 139.999924 0.000000 0.000060 21.259687 -14.052579 8.576227 139.999924
86 139.999924 0.000000 0.000060 14.601847 -11.379013 16.489174 139.999924
[Rope4_Seg07]
85 139.999802 0.000000 0.000000 20.771276 -7.671995 10.881813 139.999802
86 139.999802 0.000000 0.000000 11.967331 -5.470397 16.652946 139.999802
[Rope4_Seg08]
85 139.999924 0.000000 0.000119 9.144339 -1.397075 7.531802 139.999924
86 139.999924 0.000000 0.000119 3.840349 -0.460522 9.468396 139.999924
[Rope4_Seg09]
85 90.185791 0.000060 0.000060 -135.617828 2.228885 0.850567 90.185791
86 90.185791 0.000060 0.000060 -135.617828 2.228885 0.850567 90.185791
[L_rear_hand01]
85 101.696655 -8.392275 -7.654577 -33.685818 -15.212530 149.017090 102.329041
86 101.696655 -8.392275 -7.654577 -33.685818 -15.212530 149.017090 102.329041
[L_rear_hand02]
85 102.726799 -1.568258 5.773216 83.407906 30.330435 172.796509 102.900848
86 102.726799 -1.568258 5.773216 83.407906 30.330435 172.796509 102.900848
[L_rear_hand03]
85 104.552910 9.721220 -10.420293 -160.801239 -15.606593 -150.211823 105.519653
86 104.552910 9.721220 -10.420293 -160.801239 -15.606593 -150.211823 105.519653
